<svg xmlns="http://www.w3.org/2000/svg" xmlns:xlink="http://www.w3.org/1999/xlink"><symbol id="checkbox-checked" viewBox="0 0 17 14">
<path d="M1 8.5L4.5 12.5L16 1.5" stroke="#0078BB" stroke-width="2" stroke-linecap="round"/>
</symbol><symbol id="paw" viewBox="0 0 48 43">
<path d="M24 19C16.5591 19 6.0844 30.5031 6.0844 37.7687C6.0019 41.0406 8.50877 43 12.7313 43C17.3063 43 20.3344 40.6469 24 40.6469C27.7031 40.6469 30.7407 43 35.2688 43C39.4032 43 41.9944 41.0425 41.9944 37.7734C41.9156 30.5125 31.4438 19 24 19ZM10.2 17.8187C9.22784 14.5731 6.21565 12.4637 3.48565 13.12C0.755647 13.7762 -0.665978 16.9375 0.306584 20.1812C1.27877 23.4344 4.29096 25.5437 7.02096 24.8875C9.75096 24.2312 11.1656 21.0625 10.2 17.8187ZM18.1406 15.8687C21.0347 15.107 22.4878 11.2656 21.375 7.11531C20.2622 2.965 17.0156 0.449689 14.1103 1.1275C11.2163 1.88922 9.76315 5.73062 10.876 9.88094C11.9906 13.9469 15.2344 16.6375 18.1406 15.8687ZM44.5219 13.1219C41.7919 12.55 38.7797 14.575 37.8075 17.8206C36.8353 21.0672 38.2528 24.2303 40.9828 24.8866C43.7128 25.4584 46.7128 23.4334 47.6972 20.1878C48.6656 16.9375 47.1656 13.7781 44.5219 13.1219ZM29.8594 15.8687C32.6813 16.6305 36.0113 13.9469 37.1241 9.88094C38.2369 5.815 36.7842 1.88875 33.8897 1.1275C31.0678 0.365782 27.7378 3.04938 26.625 7.11531C25.5094 11.1812 26.9625 15.1094 29.8594 15.8687Z" fill="currentColor"/>
</symbol><symbol id="small-paw" viewBox="0 0 18 16">
<path d="M9.00122 6.7517C6.21044 6.7517 2.28182 11.066 2.28182 13.7911C2.25088 15.0182 3.1911 15.7531 4.77478 15.7531C6.49067 15.7531 7.6264 14.8705 9.00122 14.8705C10.3901 14.8705 11.5293 15.7531 13.2277 15.7531C14.7783 15.7531 15.7502 15.0189 15.7502 13.7928C15.7206 11.0696 11.7931 6.7517 9.00122 6.7517ZM3.82542 6.30866C3.46079 5.09136 2.33105 4.30022 1.30714 4.54636C0.283228 4.79249 -0.249964 5.97814 0.114804 7.19473C0.479431 8.41484 1.60918 9.20598 2.63308 8.95985C3.65699 8.71372 4.18758 7.52525 3.82542 6.30866ZM6.80361 5.5773C7.88906 5.29161 8.43406 3.85086 8.01669 2.29425C7.59932 0.737642 6.38167 -0.205746 5.29201 0.0484727C4.20657 0.334161 3.66156 1.77491 4.07893 3.33152C4.49701 4.85648 5.7136 5.86562 6.80361 5.5773ZM16.6981 4.54706C15.6742 4.33257 14.5445 5.09206 14.1798 6.30936C13.8152 7.52701 14.3469 8.71337 15.3708 8.9595C16.3947 9.17399 17.5198 8.41449 17.889 7.1972C18.2523 5.97814 17.6897 4.79319 16.6981 4.54706ZM11.1988 5.5773C12.2572 5.86299 13.5061 4.85648 13.9235 3.33152C14.3409 1.80656 13.796 0.333986 12.7104 0.0484727C11.6521 -0.237216 10.4031 0.769287 9.98575 2.29425C9.56732 3.81921 10.1123 5.29249 11.1988 5.5773Z" fill="currentColor"/>
</symbol></svg>